<svg width="274" height="43" viewBox="0 0 274 43" fill="none" xmlns="http://www.w3.org/2000/svg">
<g clip-path="url(#clip0_28125_1525)">
<path d="M6.28752 35.6497C7.77482 34.7063 9.7696 30.6832 12.5531 28.6388C15.9429 26.1479 14.8862 28.6388 13.7636 29.6238C12.6409 30.6088 11.2745 33.2332 9.21818 35.1703C8.44707 35.897 8.09337 36.4705 7.95277 36.9061C9.54552 37.948 11.2261 38.62 12.9134 39.0183C14.3567 38.296 15.6705 36.5712 16.1867 34.6472C16.8788 32.0753 19.1064 30.9634 20.273 32.014C21.4395 33.0647 17.7729 36.6084 15.6617 38.3792C15.1937 38.771 14.9411 39.0928 14.8269 39.3554C17.6455 39.6991 20.4026 39.3817 22.7335 38.8564C23.0323 38.3048 23.2322 37.7028 23.2981 37.195C23.4563 35.9955 23.5991 35.6585 24.469 35.3695C25.339 35.0806 25.7257 35.8861 24.8096 37.2541C24.4537 37.7838 24.4778 38.134 24.6404 38.3617C27.3492 37.5628 29.1265 36.6391 29.1265 36.6391C29.1265 36.6391 31.1147 32.8458 31.7825 27.9012C30.75 27.6276 28.7508 29.6107 27.9006 29.5384C26.8043 29.4443 24.3834 31.3486 24.1615 29.5778C23.9396 27.8071 28.329 27.6407 30.2732 26.8089C31.0773 26.4653 31.6243 25.8874 31.989 25.3249C32.0439 23.1317 31.7693 20.8137 30.9279 18.5657C30.416 18.6642 30.2666 19.9206 29.5505 20.5532C28.5509 21.4397 26.3825 21.8271 25.216 22.5451C24.0494 23.2652 21.9382 25.8108 20.9474 24.5829C19.9588 23.3549 26.7714 19.7762 28.1049 18.6708C28.7947 18.0973 29.3857 17.0598 29.7965 16.193C28.8562 14.593 27.5667 13.0673 25.8223 11.6927C24.212 10.4232 22.7335 9.49295 21.378 8.84287C20.7607 10.1737 20.4224 12.2991 20.1038 13.2468C19.6029 14.7418 17.5488 20.4438 15.2706 19.2815C12.9924 18.1192 17.3818 13.0805 19.0493 10.7559C19.8138 9.68995 19.7018 8.75094 19.3547 8.04831C12.3597 5.9317 9.12152 11.9029 7.7902 15.3831C4.89908 16.4841 0.285597 18.8875 0 23.6482C1.63229 25.0513 4.08403 23.4534 6.32926 22.5494C8.94137 21.4966 10.2178 21.5535 10.6088 22.3831C10.9999 23.2127 9.77399 23.9897 7.66278 24.5435C5.55156 25.0973 3.71715 26.9228 1.60593 26.4806C0.988604 26.3515 0.595359 26.4368 0.344913 26.6207C0.880956 28.5556 2.04751 30.7861 4.08843 33.3536C4.78484 34.2313 5.5208 34.9909 6.28532 35.6519L6.28752 35.6497ZM28.2653 24.132C29.2275 23.1733 30.3304 22.7202 30.728 23.1164C31.1278 23.5147 30.6709 24.6135 29.7086 25.5701C28.7464 26.5288 27.6436 26.9819 27.2459 26.5857C26.8483 26.1895 27.303 25.0885 28.2653 24.132ZM15.007 21.6279C14.8093 21.1398 15.3563 20.4613 16.2263 20.1133C17.0963 19.7652 17.9618 19.879 18.1574 20.3693C18.3551 20.8575 17.808 21.536 16.9381 21.884C16.0681 22.2321 15.2025 22.1182 15.007 21.6279ZM18.3748 23.2805C18.8648 22.7924 19.5436 22.6786 19.8907 23.0244C20.2378 23.3703 20.1236 24.0488 19.6337 24.5347C19.1438 25.0228 18.4649 25.1367 18.1178 24.7908C17.7707 24.445 17.8849 23.7664 18.3748 23.2805ZM2.75711 28.6782C2.52863 28.2032 3.85995 27.0913 5.7339 26.1961C7.60785 25.3008 9.31045 24.9594 9.53893 25.4343C9.7674 25.9093 8.43608 27.0213 6.56213 27.9165C4.68818 28.8117 2.98558 29.1532 2.75711 28.6782Z" fill="#99E451"/>
<path d="M15.6639 38.3801C15.1959 38.7719 14.9433 39.0936 14.8291 39.3563C17.6477 39.7 20.4048 39.3826 22.7357 38.8572C23.0345 38.3057 23.2344 37.7037 23.3003 37.1959C23.4585 35.9964 23.6013 35.6593 24.4712 35.3704C25.3412 35.0815 25.7279 35.887 24.8118 37.255C24.4559 37.7847 24.48 38.1349 24.6426 38.3626C27.3514 37.5636 29.1287 36.6399 29.1287 36.6399C29.1287 36.6399 30.6379 33.7594 31.4684 29.7494C29.601 29.9902 27.8918 30.0559 26.3298 29.9661C25.3742 30.3317 24.4075 30.6622 24.1944 29.7363C13.2407 27.9765 10.4946 17.9669 9.89263 11.3828C8.92379 12.7268 8.24935 14.1999 7.79679 15.384C4.89908 16.485 0.285597 18.8884 0 23.6491C1.63229 25.0522 4.08403 23.4543 6.32926 22.5503C8.94137 21.4975 10.2178 21.5544 10.6088 22.384C10.9999 23.2135 9.77399 23.9906 7.66278 24.5444C5.55156 25.0981 3.71715 26.9236 1.60593 26.4815C0.988604 26.3524 0.595359 26.4377 0.344913 26.6216C0.880956 28.5565 2.04751 30.787 4.08843 33.3545C4.78484 34.2322 5.5208 34.9917 6.28532 35.6528C7.77262 34.7094 9.7674 30.6863 12.5509 28.6419C15.9407 26.151 14.884 28.6419 13.7614 29.6269C12.6387 30.6119 11.2723 33.2363 9.21598 35.1734C8.44487 35.9001 8.09117 36.4736 7.95057 36.9092C9.54332 37.9511 11.2239 38.623 12.9112 39.0214C14.3545 38.2991 15.6683 36.5743 16.1845 34.6503C16.8766 32.0784 19.1042 30.9664 20.2708 32.0171C21.4373 33.0677 17.7707 36.6115 15.6595 38.3823L15.6639 38.3801ZM6.56433 27.9152C4.69037 28.8104 2.98778 29.1519 2.7593 28.6769C2.53083 28.2019 3.86214 27.09 5.7361 26.1948C7.61005 25.2995 9.31265 24.9581 9.54112 25.433C9.7696 25.908 8.43828 27.02 6.56433 27.9152Z" fill="#71C411"/>
<path d="M3.65998 21.7302C7.32001 19.8106 8.40747 17.0001 8.40747 17.0001C2.1551 9.15528 3.00091 5.39703 3.95656 3.91299C4.27291 3.42488 4.96493 3.35921 5.37795 3.77071L5.4153 3.80792C5.71627 4.1078 5.75362 4.56964 5.52734 4.9308C4.03345 7.33197 6.06338 11.5389 9.3763 16.0348C9.3763 16.0348 11.5842 16.1902 14.4445 12.8041C14.4445 12.8041 12.8474 15.7963 10.0332 16.906C11.4941 18.8125 13.1572 20.754 14.8598 22.6145C15.8945 22.6452 20.6727 22.4394 23.3639 16.2975C23.3639 16.2975 22.5357 21.8375 15.7561 23.5842C16.5558 24.4422 17.3598 25.2805 18.1463 26.0838C19.3942 26.4888 22.9202 27.2242 26.9691 24.475C26.9691 24.475 23.1179 27.9553 19.0097 26.955C20.7672 28.7236 22.4105 30.2952 23.7286 31.5275C23.7286 31.5275 23.7286 31.5275 23.733 31.5297C23.8385 31.5888 25.5411 32.5256 27.6589 32.1907C27.6589 32.1907 26.165 32.9415 24.324 32.0791C25.8552 33.4975 26.8263 34.3446 26.8263 34.3446C25.8399 33.5631 24.893 32.7992 23.9835 32.055C23.4958 34.4584 21.5735 35.474 21.5735 35.474C23.1289 33.9703 23.5221 32.1601 23.5968 31.7355C22.0282 30.444 20.5783 29.2073 19.236 28.0254C16.0285 33.4252 11.9071 34.1519 11.9071 34.1519C15.4837 32.5081 17.964 28.7674 18.6977 27.5504C16.9886 26.0291 15.4595 24.5954 14.0952 23.2471C9.78493 30.0719 5.37356 29.6101 5.26371 29.5969C10.4682 27.7999 12.9265 23.6717 13.4779 22.632C11.6808 20.824 10.1848 19.1736 8.94352 17.6655C5.80854 21.8637 3.65778 21.7324 3.65778 21.7324L3.65998 21.7302Z" fill="#617D41"/>
</g>
<path d="M42.4906 16.138L41.1586 15.886V14.626H44.0926C44.2846 14.626 44.6566 14.614 45.2086 14.59C45.9046 14.542 46.5346 14.518 47.0986 14.518C48.3946 14.518 49.4146 14.674 50.1586 14.986C50.9026 15.298 51.4306 15.748 51.7426 16.336C52.0546 16.912 52.2106 17.644 52.2106 18.532C52.2106 20.068 51.7426 21.262 50.8066 22.114C49.8706 22.966 48.5386 23.392 46.8106 23.392C46.2706 23.392 45.8566 23.374 45.5686 23.338V26.614L47.9446 26.812V28H41.1046V26.812L42.4906 26.632V16.138ZM45.5506 22.096C45.7906 22.156 46.1866 22.186 46.7386 22.186C48.2986 22.186 49.0786 20.992 49.0786 18.604C49.0786 17.608 48.8806 16.882 48.4846 16.426C48.1006 15.958 47.5186 15.724 46.7386 15.724C46.4026 15.724 46.1386 15.742 45.9466 15.778C45.7546 15.802 45.6226 15.82 45.5506 15.832V22.096ZM53.272 26.812L54.37 26.65V19.882L53.308 19.558V18.154L56.296 17.758H56.35L56.854 18.136V18.568L56.8 20.062H56.854C56.938 19.786 57.13 19.468 57.43 19.108C57.73 18.736 58.108 18.418 58.564 18.154C59.032 17.878 59.536 17.74 60.076 17.74C60.388 17.74 60.628 17.782 60.796 17.866V20.998C60.604 20.854 60.394 20.74 60.166 20.656C59.95 20.572 59.668 20.53 59.32 20.53C58.888 20.53 58.498 20.59 58.15 20.71C57.802 20.818 57.526 20.944 57.322 21.088V26.65L59.302 26.83V28H53.272V26.812ZM64.0985 16.444C63.6305 16.444 63.2525 16.306 62.9645 16.03C62.6765 15.754 62.5325 15.4 62.5325 14.968C62.5325 14.464 62.6885 14.05 63.0005 13.726C63.3245 13.402 63.7565 13.24 64.2965 13.24C64.8365 13.24 65.2505 13.378 65.5385 13.654C65.8265 13.93 65.9705 14.284 65.9705 14.716C65.9705 15.232 65.8085 15.652 65.4845 15.976C65.1605 16.288 64.7045 16.444 64.1165 16.444H64.0985ZM63.0005 19.882L61.7945 19.54V18.19L65.3945 17.758H65.4305L65.9885 18.136V26.65L67.0685 26.812V28H61.8845V26.812L63.0005 26.65V19.882ZM70.5685 26.506C70.6525 26.638 70.8445 26.758 71.1445 26.866C71.4565 26.974 71.7685 27.028 72.0805 27.028C72.5725 27.028 72.9445 26.926 73.1965 26.722C73.4605 26.506 73.5925 26.23 73.5925 25.894C73.5925 25.534 73.4245 25.24 73.0885 25.012C72.7525 24.772 72.2005 24.484 71.4325 24.148L70.7485 23.842C69.9685 23.494 69.3805 23.074 68.9845 22.582C68.6005 22.078 68.4085 21.442 68.4085 20.674C68.4085 20.122 68.5705 19.63 68.8945 19.198C69.2185 18.754 69.6865 18.406 70.2985 18.154C70.9105 17.902 71.6305 17.776 72.4585 17.776C73.0345 17.776 73.5325 17.812 73.9525 17.884C74.3725 17.956 74.7985 18.046 75.2305 18.154C75.5185 18.238 75.7345 18.286 75.8785 18.298V20.746H74.2765L73.8085 19.36C73.7485 19.252 73.6045 19.156 73.3765 19.072C73.1485 18.976 72.8905 18.928 72.6025 18.928C72.1465 18.928 71.7865 19.03 71.5225 19.234C71.2585 19.426 71.1265 19.69 71.1265 20.026C71.1265 20.41 71.2765 20.716 71.5765 20.944C71.8765 21.16 72.3565 21.418 73.0165 21.718L73.3945 21.88C74.3665 22.288 75.1285 22.732 75.6805 23.212C76.2325 23.68 76.5085 24.328 76.5085 25.156C76.5085 26.044 76.1545 26.776 75.4465 27.352C74.7385 27.916 73.6945 28.198 72.3145 28.198C71.6785 28.198 71.1145 28.144 70.6225 28.036C70.1305 27.94 69.5905 27.808 69.0025 27.64L68.4085 27.478V25.084H70.1185L70.5685 26.506ZM80.8703 28.162C80.0783 28.162 79.4903 27.982 79.1063 27.622C78.7343 27.25 78.5483 26.68 78.5483 25.912V19.504H77.4503V18.46L77.8103 18.316C78.0983 18.22 78.3503 18.118 78.5663 18.01C78.8063 17.782 78.9983 17.482 79.1423 17.11C79.3223 16.678 79.5203 16.072 79.7363 15.292H81.4103L81.5183 17.992H84.0923V19.504H81.5543V24.274C81.5543 24.934 81.5723 25.396 81.6083 25.66C81.6443 25.924 81.7103 26.098 81.8063 26.182C81.9143 26.254 82.1063 26.29 82.3823 26.29C82.9463 26.29 83.4803 26.194 83.9843 26.002L84.3623 27.136C84.0263 27.412 83.5283 27.652 82.8683 27.856C82.2083 28.06 81.5423 28.162 80.8703 28.162ZM87.3719 16.444C86.9039 16.444 86.5259 16.306 86.2379 16.03C85.9499 15.754 85.8059 15.4 85.8059 14.968C85.8059 14.464 85.9619 14.05 86.2739 13.726C86.5979 13.402 87.0299 13.24 87.5699 13.24C88.1099 13.24 88.5239 13.378 88.8119 13.654C89.0999 13.93 89.2439 14.284 89.2439 14.716C89.2439 15.232 89.0819 15.652 88.7579 15.976C88.4339 16.288 87.9779 16.444 87.3899 16.444H87.3719ZM86.2739 19.882L85.0679 19.54V18.19L88.6679 17.758H88.7039L89.2619 18.136V26.65L90.3419 26.812V28H85.1579V26.812L86.2739 26.65V19.882ZM92.5999 19.882L91.5379 19.558V18.154L94.8139 17.758H94.8679L95.3359 18.136V18.802L95.3179 19.216C95.7379 18.82 96.2719 18.484 96.9199 18.208C97.5679 17.932 98.2459 17.794 98.9539 17.794C99.6739 17.794 100.238 17.926 100.646 18.19C101.066 18.442 101.366 18.85 101.546 19.414C101.738 19.978 101.834 20.746 101.834 21.718V26.65L102.842 26.794V28H97.9459V26.812L98.8279 26.65V21.736C98.8279 21.16 98.7859 20.716 98.7019 20.404C98.6299 20.08 98.4979 19.846 98.3059 19.702C98.1139 19.558 97.8379 19.486 97.4779 19.486C96.9259 19.486 96.3019 19.744 95.6059 20.26V26.65L96.5959 26.812V28H91.6099V26.812L92.5999 26.65V19.882ZM108.681 28.198C107.037 28.198 105.819 27.736 105.027 26.812C104.235 25.876 103.839 24.604 103.839 22.996C103.839 21.904 104.043 20.962 104.451 20.17C104.859 19.378 105.429 18.778 106.161 18.37C106.905 17.95 107.775 17.74 108.771 17.74C110.031 17.74 110.991 18.058 111.651 18.694C112.323 19.33 112.671 20.23 112.695 21.394C112.695 22.162 112.641 22.78 112.533 23.248H106.899C106.959 24.268 107.205 25.048 107.637 25.588C108.081 26.116 108.699 26.38 109.491 26.38C109.935 26.38 110.397 26.308 110.877 26.164C111.369 26.008 111.765 25.834 112.065 25.642L112.569 26.74C112.257 27.088 111.723 27.418 110.967 27.73C110.223 28.042 109.461 28.198 108.681 28.198ZM109.833 22.06L109.851 21.304C109.851 20.548 109.749 19.972 109.545 19.576C109.341 19.18 108.993 18.982 108.501 18.982C107.997 18.982 107.607 19.204 107.331 19.648C107.055 20.08 106.905 20.884 106.881 22.06H109.833ZM122.236 14.572H125.476L129.508 26.632L130.498 26.812V28H124.828V26.812L126.106 26.632L125.494 24.472H121.192L120.58 26.65L121.984 26.812V28H117.196L117.178 26.812L118.222 26.614L122.236 14.572ZM123.568 17.704L123.298 16.444L123.01 17.722L121.552 23.086H125.116L123.568 17.704ZM131.056 26.812L132.01 26.65V19.882L130.948 19.558V18.154L134.224 17.758L134.368 17.83L134.728 18.334V19.234C135.112 18.838 135.676 18.502 136.42 18.226C137.164 17.938 137.8 17.794 138.328 17.794C138.976 17.794 139.498 17.902 139.894 18.118C140.302 18.334 140.608 18.67 140.812 19.126C141.22 18.742 141.73 18.424 142.342 18.172C142.966 17.92 143.596 17.794 144.232 17.794C145.288 17.794 146.044 18.1 146.5 18.712C146.968 19.324 147.202 20.326 147.202 21.718V26.65L148.282 26.812V28H143.404V26.812L144.214 26.65V21.79C144.214 20.926 144.112 20.326 143.908 19.99C143.716 19.654 143.356 19.486 142.828 19.486C142.276 19.486 141.7 19.72 141.1 20.188C141.172 20.632 141.208 21.142 141.208 21.718V26.65L142.216 26.812V28H137.302V26.812L138.202 26.65V21.736C138.202 20.884 138.106 20.296 137.914 19.972C137.734 19.648 137.386 19.486 136.87 19.486C136.534 19.486 136.198 19.564 135.862 19.72C135.538 19.864 135.256 20.044 135.016 20.26V26.65L135.988 26.812V28H131.056V26.812ZM149.19 25.12C149.19 24.064 149.724 23.254 150.792 22.69C151.872 22.126 153.288 21.838 155.04 21.826V21.466C155.04 21.034 154.992 20.692 154.896 20.44C154.8 20.188 154.626 20.002 154.374 19.882C154.122 19.75 153.75 19.684 153.258 19.684C152.67 19.684 152.142 19.756 151.674 19.9C151.218 20.032 150.738 20.212 150.234 20.44L149.622 19.144C149.814 18.988 150.126 18.802 150.558 18.586C150.99 18.358 151.506 18.166 152.106 18.01C152.718 17.842 153.354 17.758 154.014 17.758C154.974 17.758 155.724 17.884 156.264 18.136C156.816 18.388 157.206 18.778 157.434 19.306C157.674 19.834 157.794 20.554 157.794 21.466V26.812H158.73V27.946C158.454 28.006 158.07 28.066 157.578 28.126C157.086 28.186 156.666 28.216 156.318 28.216C155.862 28.216 155.556 28.15 155.4 28.018C155.256 27.886 155.184 27.622 155.184 27.226V26.812C154.884 27.172 154.482 27.496 153.978 27.784C153.474 28.06 152.892 28.198 152.232 28.198C151.668 28.198 151.152 28.078 150.684 27.838C150.228 27.586 149.862 27.232 149.586 26.776C149.322 26.308 149.19 25.756 149.19 25.12ZM153.636 26.542C153.852 26.542 154.092 26.482 154.356 26.362C154.62 26.23 154.848 26.074 155.04 25.894V23.032C154.104 23.032 153.408 23.2 152.952 23.536C152.508 23.872 152.286 24.304 152.286 24.832C152.286 25.372 152.406 25.792 152.646 26.092C152.886 26.392 153.216 26.542 153.636 26.542ZM161.849 19.378L161.363 21.16H159.941V17.992H168.059L168.527 19.036L164.045 25.39L162.749 26.776L166.313 26.578L167.231 24.472L168.581 24.634L168.293 28H159.779L159.275 26.902L163.901 20.71L165.269 19.234L161.849 19.378ZM169.851 23.05C169.851 21.898 170.079 20.926 170.535 20.134C170.991 19.33 171.603 18.73 172.371 18.334C173.151 17.938 174.003 17.74 174.927 17.74C176.439 17.74 177.621 18.196 178.473 19.108C179.337 20.008 179.769 21.268 179.769 22.888C179.769 24.076 179.541 25.066 179.085 25.858C178.629 26.65 178.017 27.238 177.249 27.622C176.481 28.006 175.623 28.198 174.675 28.198C173.175 28.198 171.993 27.748 171.129 26.848C170.277 25.936 169.851 24.67 169.851 23.05ZM174.855 26.938C175.431 26.938 175.857 26.632 176.133 26.02C176.421 25.396 176.565 24.424 176.565 23.104C176.565 21.7 176.427 20.668 176.151 20.008C175.887 19.336 175.437 19 174.801 19C173.625 19 173.037 20.278 173.037 22.834C173.037 24.226 173.181 25.258 173.469 25.93C173.757 26.602 174.219 26.938 174.855 26.938ZM182.354 19.882L181.292 19.558V18.154L184.568 17.758H184.622L185.09 18.136V18.802L185.072 19.216C185.492 18.82 186.026 18.484 186.674 18.208C187.322 17.932 188 17.794 188.708 17.794C189.428 17.794 189.992 17.926 190.4 18.19C190.82 18.442 191.12 18.85 191.3 19.414C191.492 19.978 191.588 20.746 191.588 21.718V26.65L192.596 26.794V28H187.7V26.812L188.582 26.65V21.736C188.582 21.16 188.54 20.716 188.456 20.404C188.384 20.08 188.252 19.846 188.06 19.702C187.868 19.558 187.592 19.486 187.232 19.486C186.68 19.486 186.056 19.744 185.36 20.26V26.65L186.35 26.812V28H181.364V26.812L182.354 26.65V19.882ZM197.919 26.812L199.305 26.632V16.12L197.991 15.868V14.626H200.763C200.991 14.626 201.237 14.62 201.501 14.608C201.777 14.596 201.987 14.584 202.131 14.572C202.779 14.524 203.331 14.5 203.787 14.5C205.071 14.5 206.091 14.626 206.847 14.878C207.603 15.118 208.149 15.502 208.485 16.03C208.833 16.546 209.007 17.23 209.007 18.082C209.007 18.898 208.791 19.66 208.359 20.368C207.927 21.076 207.291 21.562 206.451 21.826C207.003 22.03 207.465 22.414 207.837 22.978C208.221 23.53 208.617 24.238 209.025 25.102C209.265 25.606 209.457 25.984 209.601 26.236C209.745 26.476 209.895 26.614 210.051 26.65L210.573 26.812V28H207.153C206.973 28 206.787 27.808 206.595 27.424C206.403 27.04 206.157 26.44 205.857 25.624C205.485 24.628 205.161 23.86 204.885 23.32C204.621 22.768 204.327 22.432 204.003 22.312H202.383V26.632L203.985 26.812V28H197.919V26.812ZM203.769 21.142C204.393 21.142 204.879 20.902 205.227 20.422C205.575 19.93 205.749 19.192 205.749 18.208C205.749 17.344 205.575 16.714 205.227 16.318C204.891 15.91 204.321 15.706 203.517 15.706C203.085 15.706 202.707 15.736 202.383 15.796V21.088C202.539 21.124 202.797 21.142 203.157 21.142C203.517 21.142 203.721 21.142 203.769 21.142ZM215.873 28.198C214.229 28.198 213.011 27.736 212.219 26.812C211.427 25.876 211.031 24.604 211.031 22.996C211.031 21.904 211.235 20.962 211.643 20.17C212.051 19.378 212.621 18.778 213.353 18.37C214.097 17.95 214.967 17.74 215.963 17.74C217.223 17.74 218.183 18.058 218.843 18.694C219.515 19.33 219.863 20.23 219.887 21.394C219.887 22.162 219.833 22.78 219.725 23.248H214.091C214.151 24.268 214.397 25.048 214.829 25.588C215.273 26.116 215.891 26.38 216.683 26.38C217.127 26.38 217.589 26.308 218.069 26.164C218.561 26.008 218.957 25.834 219.257 25.642L219.761 26.74C219.449 27.088 218.915 27.418 218.159 27.73C217.415 28.042 216.653 28.198 215.873 28.198ZM217.025 22.06L217.043 21.304C217.043 20.548 216.941 19.972 216.737 19.576C216.533 19.18 216.185 18.982 215.693 18.982C215.189 18.982 214.799 19.204 214.523 19.648C214.247 20.08 214.097 20.884 214.073 22.06H217.025ZM224.237 28.162C223.445 28.162 222.857 27.982 222.473 27.622C222.101 27.25 221.915 26.68 221.915 25.912V19.504H220.817V18.46L221.177 18.316C221.465 18.22 221.717 18.118 221.933 18.01C222.173 17.782 222.365 17.482 222.509 17.11C222.689 16.678 222.887 16.072 223.103 15.292H224.777L224.885 17.992H227.459V19.504H224.921V24.274C224.921 24.934 224.939 25.396 224.975 25.66C225.011 25.924 225.077 26.098 225.173 26.182C225.281 26.254 225.473 26.29 225.749 26.29C226.313 26.29 226.847 26.194 227.351 26.002L227.729 27.136C227.393 27.412 226.895 27.652 226.235 27.856C225.575 28.06 224.909 28.162 224.237 28.162ZM228.561 26.812L229.659 26.65V19.882L228.597 19.558V18.154L231.585 17.758H231.639L232.143 18.136V18.568L232.089 20.062H232.143C232.227 19.786 232.419 19.468 232.719 19.108C233.019 18.736 233.397 18.418 233.853 18.154C234.321 17.878 234.825 17.74 235.365 17.74C235.677 17.74 235.917 17.782 236.085 17.866V20.998C235.893 20.854 235.683 20.74 235.455 20.656C235.239 20.572 234.957 20.53 234.609 20.53C234.177 20.53 233.787 20.59 233.439 20.71C233.091 20.818 232.815 20.944 232.611 21.088V26.65L234.591 26.83V28H228.561V26.812ZM241.836 28.198C240.192 28.198 238.974 27.736 238.182 26.812C237.39 25.876 236.994 24.604 236.994 22.996C236.994 21.904 237.198 20.962 237.606 20.17C238.014 19.378 238.584 18.778 239.316 18.37C240.06 17.95 240.93 17.74 241.926 17.74C243.186 17.74 244.146 18.058 244.806 18.694C245.478 19.33 245.826 20.23 245.85 21.394C245.85 22.162 245.796 22.78 245.688 23.248H240.054C240.114 24.268 240.36 25.048 240.792 25.588C241.236 26.116 241.854 26.38 242.646 26.38C243.09 26.38 243.552 26.308 244.032 26.164C244.524 26.008 244.92 25.834 245.22 25.642L245.724 26.74C245.412 27.088 244.878 27.418 244.122 27.73C243.378 28.042 242.616 28.198 241.836 28.198ZM242.988 22.06L243.006 21.304C243.006 20.548 242.904 19.972 242.7 19.576C242.496 19.18 242.148 18.982 241.656 18.982C241.152 18.982 240.762 19.204 240.486 19.648C240.21 20.08 240.06 20.884 240.036 22.06H242.988ZM246.906 25.12C246.906 24.064 247.44 23.254 248.508 22.69C249.588 22.126 251.004 21.838 252.756 21.826V21.466C252.756 21.034 252.708 20.692 252.612 20.44C252.516 20.188 252.342 20.002 252.09 19.882C251.838 19.75 251.466 19.684 250.974 19.684C250.386 19.684 249.858 19.756 249.39 19.9C248.934 20.032 248.454 20.212 247.95 20.44L247.338 19.144C247.53 18.988 247.842 18.802 248.274 18.586C248.706 18.358 249.222 18.166 249.822 18.01C250.434 17.842 251.07 17.758 251.73 17.758C252.69 17.758 253.44 17.884 253.98 18.136C254.532 18.388 254.922 18.778 255.15 19.306C255.39 19.834 255.51 20.554 255.51 21.466V26.812H256.446V27.946C256.17 28.006 255.786 28.066 255.294 28.126C254.802 28.186 254.382 28.216 254.034 28.216C253.578 28.216 253.272 28.15 253.116 28.018C252.972 27.886 252.9 27.622 252.9 27.226V26.812C252.6 27.172 252.198 27.496 251.694 27.784C251.19 28.06 250.608 28.198 249.948 28.198C249.384 28.198 248.868 28.078 248.4 27.838C247.944 27.586 247.578 27.232 247.302 26.776C247.038 26.308 246.906 25.756 246.906 25.12ZM251.352 26.542C251.568 26.542 251.808 26.482 252.072 26.362C252.336 26.23 252.564 26.074 252.756 25.894V23.032C251.82 23.032 251.124 23.2 250.668 23.536C250.224 23.872 250.002 24.304 250.002 24.832C250.002 25.372 250.122 25.792 250.362 26.092C250.602 26.392 250.932 26.542 251.352 26.542ZM260.466 28.162C259.674 28.162 259.086 27.982 258.702 27.622C258.33 27.25 258.144 26.68 258.144 25.912V19.504H257.046V18.46L257.406 18.316C257.694 18.22 257.946 18.118 258.162 18.01C258.402 17.782 258.594 17.482 258.738 17.11C258.918 16.678 259.116 16.072 259.332 15.292H261.006L261.114 17.992H263.688V19.504H261.15V24.274C261.15 24.934 261.168 25.396 261.204 25.66C261.24 25.924 261.306 26.098 261.402 26.182C261.51 26.254 261.702 26.29 261.978 26.29C262.542 26.29 263.076 26.194 263.58 26.002L263.958 27.136C263.622 27.412 263.124 27.652 262.464 27.856C261.804 28.06 261.138 28.162 260.466 28.162ZM267.022 26.506C267.106 26.638 267.298 26.758 267.598 26.866C267.91 26.974 268.222 27.028 268.534 27.028C269.026 27.028 269.398 26.926 269.65 26.722C269.914 26.506 270.046 26.23 270.046 25.894C270.046 25.534 269.878 25.24 269.542 25.012C269.206 24.772 268.654 24.484 267.886 24.148L267.202 23.842C266.422 23.494 265.834 23.074 265.438 22.582C265.054 22.078 264.862 21.442 264.862 20.674C264.862 20.122 265.024 19.63 265.348 19.198C265.672 18.754 266.14 18.406 266.752 18.154C267.364 17.902 268.084 17.776 268.912 17.776C269.488 17.776 269.986 17.812 270.406 17.884C270.826 17.956 271.252 18.046 271.684 18.154C271.972 18.238 272.188 18.286 272.332 18.298V20.746H270.73L270.262 19.36C270.202 19.252 270.058 19.156 269.83 19.072C269.602 18.976 269.344 18.928 269.056 18.928C268.6 18.928 268.24 19.03 267.976 19.234C267.712 19.426 267.58 19.69 267.58 20.026C267.58 20.41 267.73 20.716 268.03 20.944C268.33 21.16 268.81 21.418 269.47 21.718L269.848 21.88C270.82 22.288 271.582 22.732 272.134 23.212C272.686 23.68 272.962 24.328 272.962 25.156C272.962 26.044 272.608 26.776 271.9 27.352C271.192 27.916 270.148 28.198 268.768 28.198C268.132 28.198 267.568 28.144 267.076 28.036C266.584 27.94 266.044 27.808 265.456 27.64L264.862 27.478V25.084H266.572L267.022 26.506Z" fill="white"/>
<defs>
<clipPath id="clip0_28125_1525">
<rect width="32" height="36" fill="white" transform="translate(0 3.5)"/>
</clipPath>
</defs>
</svg>
