<svg width="274" height="37" viewBox="0 0 274 37" fill="none" xmlns="http://www.w3.org/2000/svg">
<g clip-path="url(#clip0_28114_677)">
<path d="M6.28752 32.6497C7.77482 31.7063 9.7696 27.6832 12.5531 25.6388C15.9429 23.1479 14.8862 25.6388 13.7636 26.6238C12.6409 27.6088 11.2745 30.2332 9.21818 32.1703C8.44707 32.897 8.09337 33.4705 7.95277 33.9061C9.54552 34.948 11.2261 35.62 12.9134 36.0183C14.3567 35.296 15.6705 33.5712 16.1867 31.6472C16.8788 29.0753 19.1064 27.9634 20.273 29.014C21.4395 30.0647 17.7729 33.6084 15.6617 35.3792C15.1937 35.771 14.9411 36.0928 14.8269 36.3554C17.6455 36.6991 20.4026 36.3817 22.7335 35.8564C23.0323 35.3048 23.2322 34.7028 23.2981 34.195C23.4563 32.9955 23.5991 32.6585 24.469 32.3695C25.339 32.0806 25.7257 32.8861 24.8096 34.2541C24.4537 34.7838 24.4778 35.134 24.6404 35.3617C27.3492 34.5628 29.1265 33.6391 29.1265 33.6391C29.1265 33.6391 31.1147 29.8458 31.7825 24.9012C30.75 24.6276 28.7508 26.6107 27.9006 26.5384C26.8043 26.4443 24.3834 28.3486 24.1615 26.5778C23.9396 24.8071 28.329 24.6407 30.2732 23.8089C31.0773 23.4653 31.6243 22.8874 31.989 22.3249C32.0439 20.1317 31.7693 17.8137 30.9279 15.5657C30.416 15.6642 30.2666 16.9206 29.5505 17.5532C28.5509 18.4397 26.3825 18.8271 25.216 19.5451C24.0494 20.2652 21.9382 22.8108 20.9474 21.5829C19.9588 20.3549 26.7714 16.7762 28.1049 15.6708C28.7947 15.0973 29.3857 14.0598 29.7965 13.193C28.8562 11.593 27.5667 10.0673 25.8223 8.69275C24.212 7.42322 22.7335 6.49295 21.378 5.84287C20.7607 7.17369 20.4224 9.29906 20.1038 10.2468C19.6029 11.7418 17.5488 17.4438 15.2706 16.2815C12.9924 15.1192 17.3818 10.0805 19.0493 7.75592C19.8138 6.68995 19.7018 5.75094 19.3547 5.04831C12.3597 2.9317 9.12152 8.90288 7.7902 12.3831C4.89908 13.4841 0.285597 15.8875 0 20.6482C1.63229 22.0513 4.08403 20.4534 6.32926 19.5494C8.94137 18.4966 10.2178 18.5535 10.6088 19.3831C10.9999 20.2127 9.77399 20.9897 7.66278 21.5435C5.55156 22.0973 3.71715 23.9228 1.60593 23.4806C0.988604 23.3515 0.595359 23.4368 0.344913 23.6207C0.880956 25.5556 2.04751 27.7861 4.08843 30.3536C4.78484 31.2313 5.5208 31.9909 6.28532 32.6519L6.28752 32.6497ZM28.2653 21.132C29.2275 20.1733 30.3304 19.7202 30.728 20.1164C31.1278 20.5147 30.6709 21.6135 29.7086 22.5701C28.7464 23.5288 27.6436 23.9819 27.2459 23.5857C26.8483 23.1895 27.303 22.0885 28.2653 21.132ZM15.007 18.6279C14.8093 18.1398 15.3563 17.4613 16.2263 17.1133C17.0963 16.7652 17.9618 16.879 18.1574 17.3693C18.3551 17.8575 17.808 18.536 16.9381 18.884C16.0681 19.2321 15.2025 19.1182 15.007 18.6279ZM18.3748 20.2805C18.8648 19.7924 19.5436 19.6786 19.8907 20.0244C20.2378 20.3703 20.1236 21.0488 19.6337 21.5347C19.1438 22.0228 18.4649 22.1367 18.1178 21.7908C17.7707 21.445 17.8849 20.7664 18.3748 20.2805ZM2.75711 25.6782C2.52863 25.2032 3.85995 24.0913 5.7339 23.1961C7.60785 22.3008 9.31045 21.9594 9.53893 22.4343C9.7674 22.9093 8.43608 24.0213 6.56213 24.9165C4.68818 25.8117 2.98558 26.1532 2.75711 25.6782Z" fill="#99E451"/>
<path d="M15.6639 35.3801C15.1959 35.7719 14.9433 36.0936 14.8291 36.3563C17.6477 36.7 20.4048 36.3826 22.7357 35.8572C23.0345 35.3057 23.2344 34.7037 23.3003 34.1959C23.4585 32.9964 23.6013 32.6593 24.4712 32.3704C25.3412 32.0815 25.7279 32.887 24.8118 34.255C24.4559 34.7847 24.48 35.1349 24.6426 35.3626C27.3514 34.5636 29.1287 33.6399 29.1287 33.6399C29.1287 33.6399 30.6379 30.7594 31.4684 26.7494C29.601 26.9902 27.8918 27.0559 26.3298 26.9661C25.3742 27.3317 24.4075 27.6622 24.1944 26.7363C13.2407 24.9765 10.4946 14.9669 9.89263 8.38281C8.92379 9.72677 8.24935 11.1999 7.79679 12.384C4.89908 13.485 0.285597 15.8884 0 20.6491C1.63229 22.0522 4.08403 20.4543 6.32926 19.5503C8.94137 18.4975 10.2178 18.5544 10.6088 19.384C10.9999 20.2135 9.77399 20.9906 7.66278 21.5444C5.55156 22.0981 3.71715 23.9236 1.60593 23.4815C0.988604 23.3524 0.595359 23.4377 0.344913 23.6216C0.880956 25.5565 2.04751 27.787 4.08843 30.3545C4.78484 31.2322 5.5208 31.9917 6.28532 32.6528C7.77262 31.7094 9.7674 27.6863 12.5509 25.6419C15.9407 23.151 14.884 25.6419 13.7614 26.6269C12.6387 27.6119 11.2723 30.2363 9.21598 32.1734C8.44487 32.9001 8.09117 33.4736 7.95057 33.9092C9.54332 34.9511 11.2239 35.623 12.9112 36.0214C14.3545 35.2991 15.6683 33.5743 16.1845 31.6503C16.8766 29.0784 19.1042 27.9664 20.2708 29.0171C21.4373 30.0677 17.7707 33.6115 15.6595 35.3823L15.6639 35.3801ZM6.56433 24.9152C4.69037 25.8104 2.98778 26.1519 2.7593 25.6769C2.53083 25.2019 3.86214 24.09 5.7361 23.1948C7.61005 22.2995 9.31265 21.9581 9.54112 22.433C9.7696 22.908 8.43828 24.02 6.56433 24.9152Z" fill="#71C411"/>
<path d="M3.65998 18.7302C7.32001 16.8106 8.40747 14.0001 8.40747 14.0001C2.1551 6.15528 3.00091 2.39703 3.95656 0.912989C4.27291 0.424876 4.96493 0.359211 5.37795 0.770714L5.4153 0.807925C5.71627 1.1078 5.75362 1.56964 5.52734 1.9308C4.03345 4.33197 6.06338 8.53894 9.3763 13.0348C9.3763 13.0348 11.5842 13.1902 14.4445 9.80409C14.4445 9.80409 12.8474 12.7963 10.0332 13.906C11.4941 15.8125 13.1572 17.754 14.8598 19.6145C15.8945 19.6452 20.6727 19.4394 23.3639 13.2975C23.3639 13.2975 22.5357 18.8375 15.7561 20.5842C16.5558 21.4422 17.3598 22.2805 18.1463 23.0838C19.3942 23.4888 22.9202 24.2242 26.9691 21.475C26.9691 21.475 23.1179 24.9553 19.0097 23.955C20.7672 25.7236 22.4105 27.2952 23.7286 28.5275C23.7286 28.5275 23.7286 28.5275 23.733 28.5297C23.8385 28.5888 25.5411 29.5256 27.6589 29.1907C27.6589 29.1907 26.165 29.9415 24.324 29.0791C25.8552 30.4975 26.8263 31.3446 26.8263 31.3446C25.8399 30.5631 24.893 29.7992 23.9835 29.055C23.4958 31.4584 21.5735 32.474 21.5735 32.474C23.1289 30.9703 23.5221 29.1601 23.5968 28.7355C22.0282 27.444 20.5783 26.2073 19.236 25.0254C16.0285 30.4252 11.9071 31.1519 11.9071 31.1519C15.4837 29.5081 17.964 25.7674 18.6977 24.5504C16.9886 23.0291 15.4595 21.5954 14.0952 20.2471C9.78493 27.0719 5.37356 26.6101 5.26371 26.5969C10.4682 24.7999 12.9265 20.6717 13.4779 19.632C11.6808 17.824 10.1848 16.1736 8.94352 14.6655C5.80854 18.8637 3.65778 18.7324 3.65778 18.7324L3.65998 18.7302Z" fill="#617D41"/>
</g>
<path d="M42.4906 13.138L41.1586 12.886V11.626H44.0926C44.2846 11.626 44.6566 11.614 45.2086 11.59C45.9046 11.542 46.5346 11.518 47.0986 11.518C48.3946 11.518 49.4146 11.674 50.1586 11.986C50.9026 12.298 51.4306 12.748 51.7426 13.336C52.0546 13.912 52.2106 14.644 52.2106 15.532C52.2106 17.068 51.7426 18.262 50.8066 19.114C49.8706 19.966 48.5386 20.392 46.8106 20.392C46.2706 20.392 45.8566 20.374 45.5686 20.338V23.614L47.9446 23.812V25H41.1046V23.812L42.4906 23.632V13.138ZM45.5506 19.096C45.7906 19.156 46.1866 19.186 46.7386 19.186C48.2986 19.186 49.0786 17.992 49.0786 15.604C49.0786 14.608 48.8806 13.882 48.4846 13.426C48.1006 12.958 47.5186 12.724 46.7386 12.724C46.4026 12.724 46.1386 12.742 45.9466 12.778C45.7546 12.802 45.6226 12.82 45.5506 12.832V19.096ZM53.272 23.812L54.37 23.65V16.882L53.308 16.558V15.154L56.296 14.758H56.35L56.854 15.136V15.568L56.8 17.062H56.854C56.938 16.786 57.13 16.468 57.43 16.108C57.73 15.736 58.108 15.418 58.564 15.154C59.032 14.878 59.536 14.74 60.076 14.74C60.388 14.74 60.628 14.782 60.796 14.866V17.998C60.604 17.854 60.394 17.74 60.166 17.656C59.95 17.572 59.668 17.53 59.32 17.53C58.888 17.53 58.498 17.59 58.15 17.71C57.802 17.818 57.526 17.944 57.322 18.088V23.65L59.302 23.83V25H53.272V23.812ZM64.0985 13.444C63.6305 13.444 63.2525 13.306 62.9645 13.03C62.6765 12.754 62.5325 12.4 62.5325 11.968C62.5325 11.464 62.6885 11.05 63.0005 10.726C63.3245 10.402 63.7565 10.24 64.2965 10.24C64.8365 10.24 65.2505 10.378 65.5385 10.654C65.8265 10.93 65.9705 11.284 65.9705 11.716C65.9705 12.232 65.8085 12.652 65.4845 12.976C65.1605 13.288 64.7045 13.444 64.1165 13.444H64.0985ZM63.0005 16.882L61.7945 16.54V15.19L65.3945 14.758H65.4305L65.9885 15.136V23.65L67.0685 23.812V25H61.8845V23.812L63.0005 23.65V16.882ZM70.5685 23.506C70.6525 23.638 70.8445 23.758 71.1445 23.866C71.4565 23.974 71.7685 24.028 72.0805 24.028C72.5725 24.028 72.9445 23.926 73.1965 23.722C73.4605 23.506 73.5925 23.23 73.5925 22.894C73.5925 22.534 73.4245 22.24 73.0885 22.012C72.7525 21.772 72.2005 21.484 71.4325 21.148L70.7485 20.842C69.9685 20.494 69.3805 20.074 68.9845 19.582C68.6005 19.078 68.4085 18.442 68.4085 17.674C68.4085 17.122 68.5705 16.63 68.8945 16.198C69.2185 15.754 69.6865 15.406 70.2985 15.154C70.9105 14.902 71.6305 14.776 72.4585 14.776C73.0345 14.776 73.5325 14.812 73.9525 14.884C74.3725 14.956 74.7985 15.046 75.2305 15.154C75.5185 15.238 75.7345 15.286 75.8785 15.298V17.746H74.2765L73.8085 16.36C73.7485 16.252 73.6045 16.156 73.3765 16.072C73.1485 15.976 72.8905 15.928 72.6025 15.928C72.1465 15.928 71.7865 16.03 71.5225 16.234C71.2585 16.426 71.1265 16.69 71.1265 17.026C71.1265 17.41 71.2765 17.716 71.5765 17.944C71.8765 18.16 72.3565 18.418 73.0165 18.718L73.3945 18.88C74.3665 19.288 75.1285 19.732 75.6805 20.212C76.2325 20.68 76.5085 21.328 76.5085 22.156C76.5085 23.044 76.1545 23.776 75.4465 24.352C74.7385 24.916 73.6945 25.198 72.3145 25.198C71.6785 25.198 71.1145 25.144 70.6225 25.036C70.1305 24.94 69.5905 24.808 69.0025 24.64L68.4085 24.478V22.084H70.1185L70.5685 23.506ZM80.8703 25.162C80.0783 25.162 79.4903 24.982 79.1063 24.622C78.7343 24.25 78.5483 23.68 78.5483 22.912V16.504H77.4503V15.46L77.8103 15.316C78.0983 15.22 78.3503 15.118 78.5663 15.01C78.8063 14.782 78.9983 14.482 79.1423 14.11C79.3223 13.678 79.5203 13.072 79.7363 12.292H81.4103L81.5183 14.992H84.0923V16.504H81.5543V21.274C81.5543 21.934 81.5723 22.396 81.6083 22.66C81.6443 22.924 81.7103 23.098 81.8063 23.182C81.9143 23.254 82.1063 23.29 82.3823 23.29C82.9463 23.29 83.4803 23.194 83.9843 23.002L84.3623 24.136C84.0263 24.412 83.5283 24.652 82.8683 24.856C82.2083 25.06 81.5423 25.162 80.8703 25.162ZM87.3719 13.444C86.9039 13.444 86.5259 13.306 86.2379 13.03C85.9499 12.754 85.8059 12.4 85.8059 11.968C85.8059 11.464 85.9619 11.05 86.2739 10.726C86.5979 10.402 87.0299 10.24 87.5699 10.24C88.1099 10.24 88.5239 10.378 88.8119 10.654C89.0999 10.93 89.2439 11.284 89.2439 11.716C89.2439 12.232 89.0819 12.652 88.7579 12.976C88.4339 13.288 87.9779 13.444 87.3899 13.444H87.3719ZM86.2739 16.882L85.0679 16.54V15.19L88.6679 14.758H88.7039L89.2619 15.136V23.65L90.3419 23.812V25H85.1579V23.812L86.2739 23.65V16.882ZM92.5999 16.882L91.5379 16.558V15.154L94.8139 14.758H94.8679L95.3359 15.136V15.802L95.3179 16.216C95.7379 15.82 96.2719 15.484 96.9199 15.208C97.5679 14.932 98.2459 14.794 98.9539 14.794C99.6739 14.794 100.238 14.926 100.646 15.19C101.066 15.442 101.366 15.85 101.546 16.414C101.738 16.978 101.834 17.746 101.834 18.718V23.65L102.842 23.794V25H97.9459V23.812L98.8279 23.65V18.736C98.8279 18.16 98.7859 17.716 98.7019 17.404C98.6299 17.08 98.4979 16.846 98.3059 16.702C98.1139 16.558 97.8379 16.486 97.4779 16.486C96.9259 16.486 96.3019 16.744 95.6059 17.26V23.65L96.5959 23.812V25H91.6099V23.812L92.5999 23.65V16.882ZM108.681 25.198C107.037 25.198 105.819 24.736 105.027 23.812C104.235 22.876 103.839 21.604 103.839 19.996C103.839 18.904 104.043 17.962 104.451 17.17C104.859 16.378 105.429 15.778 106.161 15.37C106.905 14.95 107.775 14.74 108.771 14.74C110.031 14.74 110.991 15.058 111.651 15.694C112.323 16.33 112.671 17.23 112.695 18.394C112.695 19.162 112.641 19.78 112.533 20.248H106.899C106.959 21.268 107.205 22.048 107.637 22.588C108.081 23.116 108.699 23.38 109.491 23.38C109.935 23.38 110.397 23.308 110.877 23.164C111.369 23.008 111.765 22.834 112.065 22.642L112.569 23.74C112.257 24.088 111.723 24.418 110.967 24.73C110.223 25.042 109.461 25.198 108.681 25.198ZM109.833 19.06L109.851 18.304C109.851 17.548 109.749 16.972 109.545 16.576C109.341 16.18 108.993 15.982 108.501 15.982C107.997 15.982 107.607 16.204 107.331 16.648C107.055 17.08 106.905 17.884 106.881 19.06H109.833ZM122.236 11.572H125.476L129.508 23.632L130.498 23.812V25H124.828V23.812L126.106 23.632L125.494 21.472H121.192L120.58 23.65L121.984 23.812V25H117.196L117.178 23.812L118.222 23.614L122.236 11.572ZM123.568 14.704L123.298 13.444L123.01 14.722L121.552 20.086H125.116L123.568 14.704ZM131.056 23.812L132.01 23.65V16.882L130.948 16.558V15.154L134.224 14.758L134.368 14.83L134.728 15.334V16.234C135.112 15.838 135.676 15.502 136.42 15.226C137.164 14.938 137.8 14.794 138.328 14.794C138.976 14.794 139.498 14.902 139.894 15.118C140.302 15.334 140.608 15.67 140.812 16.126C141.22 15.742 141.73 15.424 142.342 15.172C142.966 14.92 143.596 14.794 144.232 14.794C145.288 14.794 146.044 15.1 146.5 15.712C146.968 16.324 147.202 17.326 147.202 18.718V23.65L148.282 23.812V25H143.404V23.812L144.214 23.65V18.79C144.214 17.926 144.112 17.326 143.908 16.99C143.716 16.654 143.356 16.486 142.828 16.486C142.276 16.486 141.7 16.72 141.1 17.188C141.172 17.632 141.208 18.142 141.208 18.718V23.65L142.216 23.812V25H137.302V23.812L138.202 23.65V18.736C138.202 17.884 138.106 17.296 137.914 16.972C137.734 16.648 137.386 16.486 136.87 16.486C136.534 16.486 136.198 16.564 135.862 16.72C135.538 16.864 135.256 17.044 135.016 17.26V23.65L135.988 23.812V25H131.056V23.812ZM149.19 22.12C149.19 21.064 149.724 20.254 150.792 19.69C151.872 19.126 153.288 18.838 155.04 18.826V18.466C155.04 18.034 154.992 17.692 154.896 17.44C154.8 17.188 154.626 17.002 154.374 16.882C154.122 16.75 153.75 16.684 153.258 16.684C152.67 16.684 152.142 16.756 151.674 16.9C151.218 17.032 150.738 17.212 150.234 17.44L149.622 16.144C149.814 15.988 150.126 15.802 150.558 15.586C150.99 15.358 151.506 15.166 152.106 15.01C152.718 14.842 153.354 14.758 154.014 14.758C154.974 14.758 155.724 14.884 156.264 15.136C156.816 15.388 157.206 15.778 157.434 16.306C157.674 16.834 157.794 17.554 157.794 18.466V23.812H158.73V24.946C158.454 25.006 158.07 25.066 157.578 25.126C157.086 25.186 156.666 25.216 156.318 25.216C155.862 25.216 155.556 25.15 155.4 25.018C155.256 24.886 155.184 24.622 155.184 24.226V23.812C154.884 24.172 154.482 24.496 153.978 24.784C153.474 25.06 152.892 25.198 152.232 25.198C151.668 25.198 151.152 25.078 150.684 24.838C150.228 24.586 149.862 24.232 149.586 23.776C149.322 23.308 149.19 22.756 149.19 22.12ZM153.636 23.542C153.852 23.542 154.092 23.482 154.356 23.362C154.62 23.23 154.848 23.074 155.04 22.894V20.032C154.104 20.032 153.408 20.2 152.952 20.536C152.508 20.872 152.286 21.304 152.286 21.832C152.286 22.372 152.406 22.792 152.646 23.092C152.886 23.392 153.216 23.542 153.636 23.542ZM161.849 16.378L161.363 18.16H159.941V14.992H168.059L168.527 16.036L164.045 22.39L162.749 23.776L166.313 23.578L167.231 21.472L168.581 21.634L168.293 25H159.779L159.275 23.902L163.901 17.71L165.269 16.234L161.849 16.378ZM169.851 20.05C169.851 18.898 170.079 17.926 170.535 17.134C170.991 16.33 171.603 15.73 172.371 15.334C173.151 14.938 174.003 14.74 174.927 14.74C176.439 14.74 177.621 15.196 178.473 16.108C179.337 17.008 179.769 18.268 179.769 19.888C179.769 21.076 179.541 22.066 179.085 22.858C178.629 23.65 178.017 24.238 177.249 24.622C176.481 25.006 175.623 25.198 174.675 25.198C173.175 25.198 171.993 24.748 171.129 23.848C170.277 22.936 169.851 21.67 169.851 20.05ZM174.855 23.938C175.431 23.938 175.857 23.632 176.133 23.02C176.421 22.396 176.565 21.424 176.565 20.104C176.565 18.7 176.427 17.668 176.151 17.008C175.887 16.336 175.437 16 174.801 16C173.625 16 173.037 17.278 173.037 19.834C173.037 21.226 173.181 22.258 173.469 22.93C173.757 23.602 174.219 23.938 174.855 23.938ZM182.354 16.882L181.292 16.558V15.154L184.568 14.758H184.622L185.09 15.136V15.802L185.072 16.216C185.492 15.82 186.026 15.484 186.674 15.208C187.322 14.932 188 14.794 188.708 14.794C189.428 14.794 189.992 14.926 190.4 15.19C190.82 15.442 191.12 15.85 191.3 16.414C191.492 16.978 191.588 17.746 191.588 18.718V23.65L192.596 23.794V25H187.7V23.812L188.582 23.65V18.736C188.582 18.16 188.54 17.716 188.456 17.404C188.384 17.08 188.252 16.846 188.06 16.702C187.868 16.558 187.592 16.486 187.232 16.486C186.68 16.486 186.056 16.744 185.36 17.26V23.65L186.35 23.812V25H181.364V23.812L182.354 23.65V16.882ZM197.919 23.812L199.305 23.632V13.12L197.991 12.868V11.626H200.763C200.991 11.626 201.237 11.62 201.501 11.608C201.777 11.596 201.987 11.584 202.131 11.572C202.779 11.524 203.331 11.5 203.787 11.5C205.071 11.5 206.091 11.626 206.847 11.878C207.603 12.118 208.149 12.502 208.485 13.03C208.833 13.546 209.007 14.23 209.007 15.082C209.007 15.898 208.791 16.66 208.359 17.368C207.927 18.076 207.291 18.562 206.451 18.826C207.003 19.03 207.465 19.414 207.837 19.978C208.221 20.53 208.617 21.238 209.025 22.102C209.265 22.606 209.457 22.984 209.601 23.236C209.745 23.476 209.895 23.614 210.051 23.65L210.573 23.812V25H207.153C206.973 25 206.787 24.808 206.595 24.424C206.403 24.04 206.157 23.44 205.857 22.624C205.485 21.628 205.161 20.86 204.885 20.32C204.621 19.768 204.327 19.432 204.003 19.312H202.383V23.632L203.985 23.812V25H197.919V23.812ZM203.769 18.142C204.393 18.142 204.879 17.902 205.227 17.422C205.575 16.93 205.749 16.192 205.749 15.208C205.749 14.344 205.575 13.714 205.227 13.318C204.891 12.91 204.321 12.706 203.517 12.706C203.085 12.706 202.707 12.736 202.383 12.796V18.088C202.539 18.124 202.797 18.142 203.157 18.142C203.517 18.142 203.721 18.142 203.769 18.142ZM215.873 25.198C214.229 25.198 213.011 24.736 212.219 23.812C211.427 22.876 211.031 21.604 211.031 19.996C211.031 18.904 211.235 17.962 211.643 17.17C212.051 16.378 212.621 15.778 213.353 15.37C214.097 14.95 214.967 14.74 215.963 14.74C217.223 14.74 218.183 15.058 218.843 15.694C219.515 16.33 219.863 17.23 219.887 18.394C219.887 19.162 219.833 19.78 219.725 20.248H214.091C214.151 21.268 214.397 22.048 214.829 22.588C215.273 23.116 215.891 23.38 216.683 23.38C217.127 23.38 217.589 23.308 218.069 23.164C218.561 23.008 218.957 22.834 219.257 22.642L219.761 23.74C219.449 24.088 218.915 24.418 218.159 24.73C217.415 25.042 216.653 25.198 215.873 25.198ZM217.025 19.06L217.043 18.304C217.043 17.548 216.941 16.972 216.737 16.576C216.533 16.18 216.185 15.982 215.693 15.982C215.189 15.982 214.799 16.204 214.523 16.648C214.247 17.08 214.097 17.884 214.073 19.06H217.025ZM224.237 25.162C223.445 25.162 222.857 24.982 222.473 24.622C222.101 24.25 221.915 23.68 221.915 22.912V16.504H220.817V15.46L221.177 15.316C221.465 15.22 221.717 15.118 221.933 15.01C222.173 14.782 222.365 14.482 222.509 14.11C222.689 13.678 222.887 13.072 223.103 12.292H224.777L224.885 14.992H227.459V16.504H224.921V21.274C224.921 21.934 224.939 22.396 224.975 22.66C225.011 22.924 225.077 23.098 225.173 23.182C225.281 23.254 225.473 23.29 225.749 23.29C226.313 23.29 226.847 23.194 227.351 23.002L227.729 24.136C227.393 24.412 226.895 24.652 226.235 24.856C225.575 25.06 224.909 25.162 224.237 25.162ZM228.561 23.812L229.659 23.65V16.882L228.597 16.558V15.154L231.585 14.758H231.639L232.143 15.136V15.568L232.089 17.062H232.143C232.227 16.786 232.419 16.468 232.719 16.108C233.019 15.736 233.397 15.418 233.853 15.154C234.321 14.878 234.825 14.74 235.365 14.74C235.677 14.74 235.917 14.782 236.085 14.866V17.998C235.893 17.854 235.683 17.74 235.455 17.656C235.239 17.572 234.957 17.53 234.609 17.53C234.177 17.53 233.787 17.59 233.439 17.71C233.091 17.818 232.815 17.944 232.611 18.088V23.65L234.591 23.83V25H228.561V23.812ZM241.836 25.198C240.192 25.198 238.974 24.736 238.182 23.812C237.39 22.876 236.994 21.604 236.994 19.996C236.994 18.904 237.198 17.962 237.606 17.17C238.014 16.378 238.584 15.778 239.316 15.37C240.06 14.95 240.93 14.74 241.926 14.74C243.186 14.74 244.146 15.058 244.806 15.694C245.478 16.33 245.826 17.23 245.85 18.394C245.85 19.162 245.796 19.78 245.688 20.248H240.054C240.114 21.268 240.36 22.048 240.792 22.588C241.236 23.116 241.854 23.38 242.646 23.38C243.09 23.38 243.552 23.308 244.032 23.164C244.524 23.008 244.92 22.834 245.22 22.642L245.724 23.74C245.412 24.088 244.878 24.418 244.122 24.73C243.378 25.042 242.616 25.198 241.836 25.198ZM242.988 19.06L243.006 18.304C243.006 17.548 242.904 16.972 242.7 16.576C242.496 16.18 242.148 15.982 241.656 15.982C241.152 15.982 240.762 16.204 240.486 16.648C240.21 17.08 240.06 17.884 240.036 19.06H242.988ZM246.906 22.12C246.906 21.064 247.44 20.254 248.508 19.69C249.588 19.126 251.004 18.838 252.756 18.826V18.466C252.756 18.034 252.708 17.692 252.612 17.44C252.516 17.188 252.342 17.002 252.09 16.882C251.838 16.75 251.466 16.684 250.974 16.684C250.386 16.684 249.858 16.756 249.39 16.9C248.934 17.032 248.454 17.212 247.95 17.44L247.338 16.144C247.53 15.988 247.842 15.802 248.274 15.586C248.706 15.358 249.222 15.166 249.822 15.01C250.434 14.842 251.07 14.758 251.73 14.758C252.69 14.758 253.44 14.884 253.98 15.136C254.532 15.388 254.922 15.778 255.15 16.306C255.39 16.834 255.51 17.554 255.51 18.466V23.812H256.446V24.946C256.17 25.006 255.786 25.066 255.294 25.126C254.802 25.186 254.382 25.216 254.034 25.216C253.578 25.216 253.272 25.15 253.116 25.018C252.972 24.886 252.9 24.622 252.9 24.226V23.812C252.6 24.172 252.198 24.496 251.694 24.784C251.19 25.06 250.608 25.198 249.948 25.198C249.384 25.198 248.868 25.078 248.4 24.838C247.944 24.586 247.578 24.232 247.302 23.776C247.038 23.308 246.906 22.756 246.906 22.12ZM251.352 23.542C251.568 23.542 251.808 23.482 252.072 23.362C252.336 23.23 252.564 23.074 252.756 22.894V20.032C251.82 20.032 251.124 20.2 250.668 20.536C250.224 20.872 250.002 21.304 250.002 21.832C250.002 22.372 250.122 22.792 250.362 23.092C250.602 23.392 250.932 23.542 251.352 23.542ZM260.466 25.162C259.674 25.162 259.086 24.982 258.702 24.622C258.33 24.25 258.144 23.68 258.144 22.912V16.504H257.046V15.46L257.406 15.316C257.694 15.22 257.946 15.118 258.162 15.01C258.402 14.782 258.594 14.482 258.738 14.11C258.918 13.678 259.116 13.072 259.332 12.292H261.006L261.114 14.992H263.688V16.504H261.15V21.274C261.15 21.934 261.168 22.396 261.204 22.66C261.24 22.924 261.306 23.098 261.402 23.182C261.51 23.254 261.702 23.29 261.978 23.29C262.542 23.29 263.076 23.194 263.58 23.002L263.958 24.136C263.622 24.412 263.124 24.652 262.464 24.856C261.804 25.06 261.138 25.162 260.466 25.162ZM267.022 23.506C267.106 23.638 267.298 23.758 267.598 23.866C267.91 23.974 268.222 24.028 268.534 24.028C269.026 24.028 269.398 23.926 269.65 23.722C269.914 23.506 270.046 23.23 270.046 22.894C270.046 22.534 269.878 22.24 269.542 22.012C269.206 21.772 268.654 21.484 267.886 21.148L267.202 20.842C266.422 20.494 265.834 20.074 265.438 19.582C265.054 19.078 264.862 18.442 264.862 17.674C264.862 17.122 265.024 16.63 265.348 16.198C265.672 15.754 266.14 15.406 266.752 15.154C267.364 14.902 268.084 14.776 268.912 14.776C269.488 14.776 269.986 14.812 270.406 14.884C270.826 14.956 271.252 15.046 271.684 15.154C271.972 15.238 272.188 15.286 272.332 15.298V17.746H270.73L270.262 16.36C270.202 16.252 270.058 16.156 269.83 16.072C269.602 15.976 269.344 15.928 269.056 15.928C268.6 15.928 268.24 16.03 267.976 16.234C267.712 16.426 267.58 16.69 267.58 17.026C267.58 17.41 267.73 17.716 268.03 17.944C268.33 18.16 268.81 18.418 269.47 18.718L269.848 18.88C270.82 19.288 271.582 19.732 272.134 20.212C272.686 20.68 272.962 21.328 272.962 22.156C272.962 23.044 272.608 23.776 271.9 24.352C271.192 24.916 270.148 25.198 268.768 25.198C268.132 25.198 267.568 25.144 267.076 25.036C266.584 24.94 266.044 24.808 265.456 24.64L264.862 24.478V22.084H266.572L267.022 23.506Z" fill="white"/>
<defs>
<clipPath id="clip0_28114_677">
<rect width="32" height="36" fill="white" transform="translate(0 0.5)"/>
</clipPath>
</defs>
</svg>
