<svg width="22" height="25" viewBox="0 0 22 25" fill="none" xmlns="http://www.w3.org/2000/svg">
<g clip-path="url(#clip0_28124_822)">
<path d="M4.62618 21.9344C5.60222 21.3055 6.9113 18.6234 8.73795 17.2605C10.9625 15.5999 10.2691 17.2605 9.53234 17.9172C8.79562 18.5738 7.89887 20.3234 6.54943 21.6149C6.04339 22.0993 5.81127 22.4816 5.719 22.772C6.76425 23.4666 7.86716 23.9146 8.97439 24.1802C9.9216 23.6986 10.7837 22.5488 11.1225 21.2661C11.5767 19.5515 13.0386 18.8102 13.8041 19.5106C14.5697 20.2111 12.1635 22.5736 10.778 23.7541C10.4709 24.0153 10.3051 24.2298 10.2301 24.4049C12.0798 24.634 13.8892 24.4224 15.4189 24.0722C15.6149 23.7045 15.7461 23.3032 15.7894 22.9647C15.8932 22.165 15.9869 21.9403 16.5578 21.7477C17.1287 21.555 17.3825 22.092 16.7813 23.0041C16.5477 23.3572 16.5636 23.5907 16.6703 23.7424C18.4479 23.2098 19.6142 22.594 19.6142 22.594C19.6142 22.594 20.919 20.0652 21.3573 16.7688C20.6797 16.5863 19.3677 17.9084 18.8098 17.8603C18.0903 17.7975 16.5016 19.067 16.356 17.8865C16.2104 16.706 19.0909 16.5951 20.3668 16.0406C20.8945 15.8115 21.2535 15.4263 21.4928 15.0512C21.5288 13.5891 21.3486 12.0438 20.7964 10.5451C20.4605 10.6108 20.3625 11.4484 19.8925 11.8701C19.2365 12.4611 17.8135 12.7194 17.048 13.198C16.2824 13.6781 14.897 15.3752 14.2467 14.5566C13.598 13.7379 18.0687 11.3521 18.9438 10.6152C19.3965 10.2328 19.7844 9.54117 20.054 8.96332C19.4369 7.89662 18.5906 6.87953 17.4459 5.96313C16.3891 5.11678 15.4189 4.49661 14.5293 4.06321C14.1242 4.95043 13.9022 6.36734 13.6931 6.99919C13.3644 7.99584 12.0164 11.7971 10.5214 11.0223C9.02629 10.2474 11.9068 6.88829 13.0011 5.33858C13.5028 4.62794 13.4293 4.00193 13.2015 3.53351C8.61108 2.12243 6.48599 6.10322 5.61232 8.4234C3.71502 9.15739 0.687423 10.7596 0.5 13.9335C1.57119 14.8688 3.18015 13.8036 4.65358 13.2009C6.36777 12.499 7.20541 12.537 7.46204 13.09C7.71866 13.6431 6.91418 14.1611 5.5287 14.5303C4.14321 14.8995 2.93938 16.1165 1.55389 15.8217C1.14877 15.7356 0.890704 15.7925 0.726349 15.9151C1.07813 17.2051 1.84368 18.692 3.18303 20.4037C3.64005 20.9889 4.12303 21.4952 4.62474 21.9359L4.62618 21.9344ZM19.0491 14.256C19.6806 13.6168 20.4043 13.3147 20.6652 13.5789C20.9276 13.8444 20.6278 14.577 19.9963 15.2147C19.3648 15.8538 18.6411 16.1559 18.3801 15.8918C18.1192 15.6276 18.4176 14.8936 19.0491 14.256ZM10.3483 12.5866C10.2186 12.2612 10.5776 11.8088 11.1485 11.5768C11.7194 11.3448 12.2875 11.4207 12.4158 11.7475C12.5455 12.0729 12.1865 12.5253 11.6156 12.7573C11.0447 12.9893 10.4767 12.9135 10.3483 12.5866ZM12.5585 13.6883C12.88 13.3629 13.3255 13.287 13.5533 13.5176C13.7811 13.7481 13.7061 14.2005 13.3846 14.5245C13.0631 14.8499 12.6176 14.9257 12.3898 14.6952C12.162 14.4646 12.237 14.0123 12.5585 13.6883ZM2.30935 17.2868C2.15941 16.9701 3.03309 16.2288 4.26287 15.632C5.49265 15.0352 6.60998 14.8075 6.75992 15.1242C6.90986 15.4408 6.03618 16.1821 4.8064 16.779C3.57662 17.3758 2.45929 17.6034 2.30935 17.2868Z" fill="#99E451"/>
<path d="M10.7794 23.756C10.4723 24.0172 10.3065 24.2317 10.2316 24.4068C12.0813 24.6359 13.8906 24.4243 15.4203 24.0741C15.6164 23.7064 15.7476 23.3051 15.7908 22.9665C15.8946 22.1669 15.9883 21.9422 16.5592 21.7495C17.1302 21.5569 17.3839 22.0939 16.7827 23.0059C16.5492 23.3591 16.565 23.5926 16.6717 23.7443C18.4493 23.2117 19.6157 22.5959 19.6157 22.5959C19.6157 22.5959 20.6061 20.6755 21.1511 18.0022C19.9256 18.1628 18.804 18.2065 17.7789 18.1467C17.1518 18.3904 16.5174 18.6107 16.3776 17.9935C9.18921 16.8203 7.38707 10.1472 6.99204 5.75781C6.35624 6.65378 5.91363 7.63585 5.61664 8.42529C3.71502 9.15928 0.687423 10.7615 0.5 13.9354C1.57119 14.8707 3.18015 13.8055 4.65358 13.2028C6.36777 12.5009 7.20541 12.5389 7.46204 13.0919C7.71866 13.645 6.91418 14.163 5.5287 14.5322C4.14321 14.9014 2.93938 16.1184 1.55389 15.8236C1.14877 15.7375 0.890704 15.7944 0.726349 15.917C1.07813 17.207 1.84368 18.6939 3.18303 20.4056C3.64005 20.9907 4.12303 21.4971 4.62474 21.9378C5.60078 21.3089 6.90986 18.6268 8.73651 17.2639C10.9611 15.6033 10.2676 17.2639 9.53089 17.9205C8.79418 18.5772 7.89743 20.3268 6.54799 21.6182C6.04195 22.1027 5.80983 22.485 5.71756 22.7754C6.7628 23.47 7.86571 23.918 8.97295 24.1835C9.92016 23.702 10.7823 22.5521 11.1211 21.2695C11.5752 19.5549 13.0371 18.8136 13.8027 19.514C14.5682 20.2144 12.162 22.5769 10.7765 23.7574L10.7794 23.756ZM4.80784 16.7794C3.57806 17.3762 2.46073 17.6039 2.31079 17.2872C2.16085 16.9706 3.03453 16.2293 4.26431 15.6324C5.4941 15.0356 6.61142 14.808 6.76136 15.1246C6.9113 15.4413 6.03762 16.1826 4.80784 16.7794Z" fill="#71C411"/>
<path d="M2.90101 12.6535C5.3029 11.3737 6.01655 9.50008 6.01655 9.50008C1.91343 4.27019 2.46849 1.76469 3.09564 0.775326C3.30324 0.449917 3.75738 0.40614 4.02843 0.680476L4.05294 0.705283C4.25045 0.905198 4.27496 1.2131 4.12646 1.45387C3.1461 3.05465 4.47824 5.85929 6.65235 8.85656C6.65235 8.85656 8.10127 8.96016 9.97838 6.70273C9.97838 6.70273 8.93025 8.6975 7.08342 9.43733C8.04216 10.7083 9.13353 12.0027 10.2509 13.243C10.9299 13.2634 14.0656 13.1263 15.8317 9.03166C15.8317 9.03166 15.2882 12.725 10.8391 13.8895C11.3639 14.4615 11.8915 15.0204 12.4077 15.5559C13.2266 15.8259 15.5405 16.3162 18.1976 14.4834C18.1976 14.4834 15.6703 16.8035 12.9743 16.1367C14.1276 17.3157 15.206 18.3635 16.0711 19.185C16.0711 19.185 16.0711 19.185 16.0739 19.1865C16.1431 19.2259 17.2605 19.8504 18.6503 19.6272C18.6503 19.6272 17.6699 20.1277 16.4618 19.5527C17.4666 20.4983 18.1039 21.063 18.1039 21.063C17.4565 20.5421 16.8352 20.0328 16.2383 19.5367C15.9182 21.1389 14.6567 21.816 14.6567 21.816C15.6775 20.8135 15.9355 19.6067 15.9846 19.3236C14.9552 18.4627 14.0036 17.6382 13.1228 16.8502C11.0179 20.4502 8.3132 20.9346 8.3132 20.9346C10.6603 19.8387 12.288 17.3449 12.7695 16.5336C11.6479 15.5194 10.6445 14.5636 9.74915 13.6647C6.9205 18.2146 4.02554 17.9067 3.95346 17.898C7.36888 16.6999 8.98215 13.9478 9.34402 13.2547C8.1647 12.0494 7.1829 10.9491 6.36833 9.94369C4.311 12.7425 2.89956 12.6549 2.89956 12.6549L2.90101 12.6535Z" fill="#617D41"/>
</g>
<defs>
<clipPath id="clip0_28124_822">
<rect width="21" height="24" fill="white" transform="translate(0.5 0.5)"/>
</clipPath>
</defs>
</svg>
